Start = 20.000000, duration = 50, magnitude = 10.000000, direction = 30
datacolumns 10
datarows 101
range 0 100
endheader
time	ground_force1_vx	ground_force1_vy	ground_force1_vz	ground_force1_px	ground_force1_py	ground_force1_pz	ground_torque1_x	ground_torque1_y	ground_torque1_z
0	0	0	0	0	0	0	0	0	0
1	0	0	0	0	0	0	0	0	0
2	0	0	0	0	0	0	0	0	0
3	0	0	0	0	0	0	0	0	0
4	0	0	0	0	0	0	0	0	0
5	0	0	0	0	0	0	0	0	0
6	0	0	0	0	0	0	0	0	0
7	0	0	0	0	0	0	0	0	0
8	0	0	0	0	0	0	0	0	0
9	0	0	0	0	0	0	0	0	0
10	0	0	0	0	0	0	0	0	0
11	0	0	0	0	0	0	0	0	0
12	0	0	0	0	0	0	0	0	0
13	0	0	0	0	0	0	0	0	0
14	0	0	0	0	0	0	0	0	0
15	0	0	0	0	0	0	0	0	0
16	0	0	0	0	0	0	0	0	0
17	0	0	0	0	0	0	0	0	0
18	0	0	0	0	0	0	0	0	0
19	0	0	0	0	0	0	0	0	0
20	0	0	0	0	0	0	0	0	0
21	0.5437818503	0.3139525976	0	0	0	0	0	0	0
22	1.085417642	0.6266661678	0	0	0	0	0	0	0
23	1.622769786	0.9369065729	0	0	0	0	0	0	0
24	2.153717599	1.243449436	0	0	0	0	0	0	0
25	2.676165673	1.545084972	0	0	0	0	0	0	0
26	3.188052144	1.840622763	0	0	0	0	0	0	0
27	3.687356829	2.128896458	0	0	0	0	0	0	0
28	4.172109201	2.408768371	0	0	0	0	0	0	0
29	4.640396165	2.679133975	0	0	0	0	0	0	0
30	5.090369605	2.938926261	0	0	0	0	0	0	0
31	5.520253681	3.187119949	0	0	0	0	0	0	0
32	5.928351838	3.42273553	0	0	0	0	0	0	0
33	6.313053499	3.644843137	0	0	0	0	0	0	0
34	6.672840422	3.852566214	0	0	0	0	0	0	0
35	7.006292692	4.045084972	0	0	0	0	0	0	0
36	7.312094326	4.221639628	0	0	0	0	0	0	0
37	7.589038464	4.3815334	0	0	0	0	0	0	0
38	7.836032135	4.524135262	0	0	0	0	0	0	0
39	8.052100566	4.648882429	0	0	0	0	0	0	0
40	8.236391035	4.755282581	0	0	0	0	0	0	0
41	8.388176232	4.842915806	0	0	0	0	0	0	0
42	8.506857129	4.911436254	0	0	0	0	0	0	0
43	8.591965348	4.960573507	0	0	0	0	0	0	0
44	8.643165005	4.990133642	0	0	0	0	0	0	0
45	8.660254038	5	0	0	0	0	0	0	0
46	8.643165005	4.990133642	0	0	0	0	0	0	0
47	8.591965348	4.960573507	0	0	0	0	0	0	0
48	8.506857129	4.911436254	0	0	0	0	0	0	0
49	8.388176232	4.842915806	0	0	0	0	0	0	0
50	8.236391035	4.755282581	0	0	0	0	0	0	0
51	8.052100566	4.648882429	0	0	0	0	0	0	0
52	7.836032135	4.524135262	0	0	0	0	0	0	0
53	7.589038464	4.3815334	0	0	0	0	0	0	0
54	7.312094326	4.221639628	0	0	0	0	0	0	0
55	7.006292692	4.045084972	0	0	0	0	0	0	0
56	6.672840422	3.852566214	0	0	0	0	0	0	0
57	6.313053499	3.644843137	0	0	0	0	0	0	0
58	5.928351838	3.42273553	0	0	0	0	0	0	0
59	5.520253681	3.187119949	0	0	0	0	0	0	0
60	5.090369605	2.938926261	0	0	0	0	0	0	0
61	4.640396165	2.679133975	0	0	0	0	0	0	0
62	4.172109201	2.408768371	0	0	0	0	0	0	0
63	3.687356829	2.128896458	0	0	0	0	0	0	0
64	3.188052144	1.840622763	0	0	0	0	0	0	0
65	2.676165673	1.545084972	0	0	0	0	0	0	0
66	2.153717599	1.243449436	0	0	0	0	0	0	0
67	1.622769786	0.9369065729	0	0	0	0	0	0	0
68	1.085417642	0.6266661678	0	0	0	0	0	0	0
69	0.5437818503	0.3139525976	0	0	0	0	0	0	0
70	-2.785350134e-15	-1.60812265e-15	0	0	0	0	0	0	0
71	0	0	0	0	0	0	0	0	0
72	0	0	0	0	0	0	0	0	0
73	0	0	0	0	0	0	0	0	0
74	0	0	0	0	0	0	0	0	0
75	0	0	0	0	0	0	0	0	0
76	0	0	0	0	0	0	0	0	0
77	0	0	0	0	0	0	0	0	0
78	0	0	0	0	0	0	0	0	0
79	0	0	0	0	0	0	0	0	0
80	0	0	0	0	0	0	0	0	0
81	0	0	0	0	0	0	0	0	0
82	0	0	0	0	0	0	0	0	0
83	0	0	0	0	0	0	0	0	0
84	0	0	0	0	0	0	0	0	0
85	0	0	0	0	0	0	0	0	0
86	0	0	0	0	0	0	0	0	0
87	0	0	0	0	0	0	0	0	0
88	0	0	0	0	0	0	0	0	0
89	0	0	0	0	0	0	0	0	0
90	0	0	0	0	0	0	0	0	0
91	0	0	0	0	0	0	0	0	0
92	0	0	0	0	0	0	0	0	0
93	0	0	0	0	0	0	0	0	0
94	0	0	0	0	0	0	0	0	0
95	0	0	0	0	0	0	0	0	0
96	0	0	0	0	0	0	0	0	0
97	0	0	0	0	0	0	0	0	0
98	0	0	0	0	0	0	0	0	0
99	0	0	0	0	0	0	0	0	0
100	0	0	0	0	0	0	0	0	0
